<svg xmlns="http://www.w3.org/2000/svg" version="1.0" viewBox="0 0 920 920">
    <path fill="currentColor" d="M430 116.1c-68.4 5.9-135.9 33.6-189.7 77.9-12 9.9-39.1 37.4-48.4 49-41.7 52.2-65.7 108.9-74.5 175.6-2.2 16.3-2.5 62.8-.6 78.4 8.6 69.4 32.4 126.4 75.1 180 9.7 12.3 38.9 41.4 51.1 51.1 55.9 44.5 118.1 69.5 188.5 75.8 14.7 1.4 55.8.6 70.3-1.3 66.1-8.7 122.8-32.8 175.2-74.5 12.2-9.7 41.4-38.9 51.1-51.1 42.5-53.4 66.8-111.6 75.1-179.5 1.7-14.3 1.7-60.4 0-74.5-7.5-61.1-28-115.1-61.5-162-16.8-23.4-44.4-53-64.7-69.1-52.4-41.8-108.2-65.5-175.5-74.5-13.2-1.8-56.6-2.6-71.5-1.3zm58.6 58c64.2 6.3 124.2 34.1 170.7 78.9 48.6 46.8 78.3 106.9 86.2 174.6 1.7 14.8 2 45.4.5 60.5A287.167 287.167 0 0 1 488.1 746c-15.1 1.5-45.7 1.2-60.5-.5-67.7-7.9-127.8-37.6-174.6-86.2-44.9-46.5-72.5-106.5-79-171.2-1.5-15.1-1.2-45.6.5-60.5 6.2-53.2 25.7-101.4 58.1-143.6 11.3-14.8 36.6-40.1 51.4-51.4 41.9-32.1 90.1-51.7 143-58.1 13.2-1.6 47.2-1.8 61.6-.4z"/>
    <path fill="currentColor" d="M473 235.6c-10.9 24.3-21.1 61.2-27 97.8-2.3 14.4-5.2 41.7-4.5 42.4.2.3 3 0 6.1-.7 11.2-2.2 30.3-.6 38.9 3.3 14.5 6.6 21.6 10.6 28.1 15.7 4.2 3.4 7.9 5.7 8.3 5.2.4-.4 5.9-7.8 12.3-16.3 24.7-33.1 53.2-62.1 77.8-79 5-3.4 8.9-6.7 8.7-7.3-.9-2.9-30.6-26.7-33.2-26.7-.7 0-4.6 2.5-8.6 5.7-29.5 22.7-56.5 50.6-82.1 84.9-4.6 6.1-9.3 12.4-10.5 14l-2.2 2.9v-4.6c-.1-5.7 3.3-31.6 6-46.4 5.1-27.2 14-56.3 23.5-76.4 3-6.3 5.1-11.8 4.7-12.2-1.1-1.1-26.3-5.6-35.9-6.4l-8.2-.7-2.2 4.8zM389 241.4c-9.4 2.9-20.8 7.2-28.2 10.6-3 1.4-3-.3.3 21.4 3.7 24.4 11.1 52 21.5 79.3 5.6 14.9 18.3 44.3 19.1 44.3.2 0 2.5-1.8 5.1-3.9 6.8-5.8 15.3-10.6 24-13.7 4.2-1.5 7.9-2.9 8.1-3 .2-.2-2-5.6-4.9-12.1-11.3-25.3-21.4-54.9-26.4-77.6-3.1-13.5-6.6-37-6.6-44 0-2.6-.3-4.7-.7-4.7-.5.1-5.5 1.6-11.3 3.4zM292.4 302.2c-5 5.5-15.1 18-19.4 24-4 5.8-4.1 5.5 6.7 19.1 23.4 29.3 52.5 56.5 89.1 83l9.2 6.8 1.1-2.8c3.9-9.8 9.8-20.3 15-26.9 3.4-4.2 5.7-7.9 5.2-8.3-.4-.4-7.8-5.9-16.3-12.3-33.9-25.2-64.7-55.9-81.3-81.1-2.1-3.1-4.2-5.7-4.6-5.7-.5 0-2.6 1.9-4.7 4.2zM662.5 358.7c-40.7 4.9-80 16.3-124.5 35.9-13.7 6-15 6.8-13.8 8.4.7.9 3 3.9 5.1 6.6 4.2 5.5 10.9 18.6 12.8 25.2.9 3.2 1.7 4.2 2.8 3.8.9-.2 9-3.7 18-7.6 36.9-16.1 79.2-27.5 109.9-29.6 8.8-.7 9.2-.8 8.6-2.8-4.6-16.2-13.9-40.8-15.3-40.5-.3.1-1.9.4-3.6.6zM237.5 401.2c-2.1 6.5-6.5 34.4-6.5 41.7 0 2.4 3.4 4 22.5 11.1 22.8 8.5 53.2 16 82.5 20.4 14.5 2.2 39.2 4.7 39.8 4.1.3-.2 0-3-.7-6.1-1.5-7.8-1.4-18.7.4-27.9.8-4.3 1.2-8.2.9-8.6-.3-.5-2.2-.9-4.3-.9-5.2 0-32.1-3.6-45.6-6.1-27.2-5.1-56.3-14-76.4-23.5-6.3-3-11.6-5.4-11.8-5.4-.2 0-.6.6-.8 1.2zM454.5 402.6c-1.1.2-4.5.9-7.5 1.5-20.2 4-38.1 21.8-43.1 42.9-4.5 18.8 1.5 39.5 15.6 53.5 11.2 11.3 24.7 16.8 40.5 16.8 26.7 0 50.1-18.4 56.1-44.3 1.6-7.1 1.6-19 0-26-4.8-20.6-22.1-38.2-42.1-42.8-5.5-1.3-16.8-2.2-19.5-1.6zM544.4 444.2c1.7 8.7 1.8 22.5.2 30.7-.8 4.6-1.3 8.8-1 9.2.3.5 2.2.9 4.3.9 5.2 0 32.1 3.6 45.6 6.1 27.2 5.1 56.3 14 76.4 23.5 6.3 3 11.8 5.1 12.2 4.7 1.4-1.4 5.9-27.9 6.1-36.3l.3-8.1-7.9-3.4c-23.1-10.1-57-19.5-90.6-25-7.9-1.3-42.4-5.5-45.4-5.5-.4 0-.5 1.5-.2 3.2zM371.5 482.7c-14.7 8-57.3 23.2-80.7 28.8-14.8 3.5-40.4 7.5-48.3 7.5-4.4 0-4.5.1-3.9 2.7 1.4 6 7.4 23.2 10.9 31.5 3.6 8.5 3.7 8.6 6.8 8.2 42.3-5.3 82-16.7 127-36.6 7.5-3.3 13.7-6.2 13.7-6.5 0-.3-1.7-2.4-3.7-4.8-5.4-6.1-10.9-15.8-14.1-24.7-1.5-4.3-3.1-7.8-3.7-7.8-.5.1-2.3.8-4 1.7zM540.8 488.2c-2.6 7.5-9.3 19.3-15 26.4-3.3 4.2-5.8 7.7-5.6 7.9.2.1 5.9 4.4 12.8 9.5 35.7 26.4 67.5 57.8 84.6 83.2 2.5 3.8 4.9 6.8 5.4 6.8 1.8 0 22.8-25.6 26.1-31.6 1-2 .6-3-3.4-8.6-8.1-11.3-21-26.1-34.7-39.8-17.6-17.6-34.9-32.1-63.3-52.9l-5.8-4.2-1.1 3.3zM387.3 533.8c-15.3 20.6-26 33.1-42.7 49.8-14.9 14.8-28.2 26.2-40.3 34.3-3.5 2.3-6.3 4.6-6.3 5 0 1.5 19.4 18 28.3 24 5.8 4 5.4 4.1 18.3-6 28.6-22.5 59.1-55.1 83.5-89.4l6.4-9 .3 4.2c.4 4.8-2.9 30.7-5.9 46.8-5.1 27.2-14 56.3-23.5 76.4-3 6.3-5.1 11.8-4.7 12.1 1.9 1.7 33.6 7 42 7 2.6 0 3.8-2.4 11.3-22.5 8.2-22.1 15.4-50.8 19.9-80 2.5-15.7 5.3-41.6 4.7-42.3-.3-.2-3.4.1-6.9.7-11.3 2-29.3.6-37.2-2.8-12.4-5.5-22.6-11.1-28.9-16.1-4.2-3.3-7.7-6-7.8-6-.2 0-4.9 6.2-10.5 13.8zM511 528.7c-7.6 5.7-17.8 11-25.8 13.4-3.2.9-4.2 1.7-3.8 2.8.2.9 3.7 9 7.6 18 16.2 37.2 27.5 79 29.7 110.2.6 8.5.7 8.9 2.7 8.3 9.4-2.6 24.6-7.9 31.8-10.9 8.5-3.6 8.6-3.7 8.2-6.8-4.2-33.6-11.3-62.3-23.3-94.5-4.7-12.7-18.8-46.2-19.5-46.2 0 0-3.5 2.5-7.6 5.7z"/>
</svg>
